HIERARCHY
ROOT Root
{
  OFFSET 0.0 0.0 0.0
  CHANNELS 6 Xposition Yposition Zposition Zrotation Yrotation Xrotation
  JOINT Hips
  {
    OFFSET 0.0 100.0 0.0
    CHANNELS 6 Xposition Yposition Zposition Zrotation Yrotation Xrotation
    JOINT Spine1
    {
      OFFSET -0.013727 5.003763 -0.053727
      CHANNELS 3 Zrotation Yrotation Xrotation
      JOINT Spine2
      {
        OFFSET -0.0 7.125301 -0.029825
        CHANNELS 3 Zrotation Yrotation Xrotation
        JOINT Chest
        {
          OFFSET -1e-06 7.550063 -0.815971
          CHANNELS 3 Zrotation Yrotation Xrotation
          JOINT Neck1
          {
            OFFSET -0.181677 26.311295 -0.553348
            CHANNELS 3 Zrotation Yrotation Xrotation
            JOINT Neck2
            {
              OFFSET -3e-06 7.709397 2.302585
              CHANNELS 3 Zrotation Yrotation Xrotation
              JOINT Head
              {
                OFFSET -5e-06 6.128916 1.953709
                CHANNELS 3 Zrotation Yrotation Xrotation
                JOINT HeadEnd
                {
                  OFFSET 0.003598 16.065403 -1.835379
                  CHANNELS 3 Zrotation Yrotation Xrotation
                }
                JOINT Jaw
                {
                  OFFSET 0.002637 0.475592 3.094941
                  CHANNELS 3 Zrotation Yrotation Xrotation
                }
                JOINT LeftEye
                {
                  OFFSET 3.206381 5.380205 7.586883
                  CHANNELS 3 Zrotation Yrotation Xrotation
                }
                JOINT RightEye
                {
                  OFFSET -3.22244 5.361869 7.558234
                  CHANNELS 3 Zrotation Yrotation Xrotation
                }
              }
            }
          }
          JOINT LeftShoulder
          {
            OFFSET 1.621652 23.237164 5.113413
            CHANNELS 3 Zrotation Yrotation Xrotation
            JOINT LeftArm
            {
              OFFSET 14.919846 2e-06 -5.502326
              CHANNELS 3 Zrotation Yrotation Xrotation
              JOINT LeftForeArm
              {
                OFFSET 28.739307 0.0 -0.002588
                CHANNELS 3 Zrotation Yrotation Xrotation
                JOINT LeftHand
                {
                  OFFSET 27.093981 -1e-06 0.002609
                  CHANNELS 3 Zrotation Yrotation Xrotation
                  JOINT LeftHandThumb1
                  {
                    OFFSET 2.276482 -1.392045 3.191413
                    CHANNELS 3 Zrotation Yrotation Xrotation
                    JOINT LeftHandThumb2
                    {
                      OFFSET 4.012836 -1.828127 1.641654
                      CHANNELS 3 Zrotation Yrotation Xrotation
                      JOINT LeftHandThumb3
                      {
                        OFFSET 2.798515 0.0 -3e-06
                        CHANNELS 3 Zrotation Yrotation Xrotation
                        JOINT LeftHandThumbEnd
                        {
                          OFFSET 3.180793 -4e-06 4e-06
                          CHANNELS 3 Zrotation Yrotation Xrotation
                        }
                      }
                    }
                  }
                  JOINT LeftHandIndex1
                  {
                    OFFSET 3.247555 -0.531998 2.296169
                    CHANNELS 3 Zrotation Yrotation Xrotation
                    JOINT LeftHandIndex2
                    {
                      OFFSET 6.364578 0.01206 0.1786
                      CHANNELS 3 Zrotation Yrotation Xrotation
                      JOINT LeftHandIndex3
                      {
                        OFFSET 3.662364 0.0 0.0
                        CHANNELS 3 Zrotation Yrotation Xrotation
                        JOINT LeftHandIndex4
                        {
                          OFFSET 2.329242 4e-06 4e-06
                          CHANNELS 3 Zrotation Yrotation Xrotation
                          JOINT LeftHandIndexEnd
                          {
                            OFFSET 2.759615 -0.180537 -0.113024
                            CHANNELS 3 Zrotation Yrotation Xrotation
                          }
                        }
                      }
                    }
                  }
                  JOINT LeftHandMiddle1
                  {
                    OFFSET 3.163495 0.240981 1.000332
                    CHANNELS 3 Zrotation Yrotation Xrotation
                    JOINT LeftHandMiddle2
                    {
                      OFFSET 6.19078 -0.259278 -1.002548
                      CHANNELS 3 Zrotation Yrotation Xrotation
                      JOINT LeftHandMiddle3
                      {
                        OFFSET 4.35652 -4e-06 -1e-06
                        CHANNELS 3 Zrotation Yrotation Xrotation
                        JOINT LeftHandMiddle4
                        {
                          OFFSET 2.996877 -8e-06 0.0
                          CHANNELS 3 Zrotation Yrotation Xrotation
                          JOINT LeftHandMiddleEnd
                          {
                            OFFSET 2.304287 -0.294569 -0.031741
                            CHANNELS 3 Zrotation Yrotation Xrotation
                          }
                        }
                      }
                    }
                  }
                  JOINT LeftHandRing1
                  {
                    OFFSET 2.882643 -0.053652 -0.322543
                    CHANNELS 3 Zrotation Yrotation Xrotation
                    JOINT LeftHandRing2
                    {
                      OFFSET 5.854541 -0.486202 -1.373841
                      CHANNELS 3 Zrotation Yrotation Xrotation
                      JOINT LeftHandRing3
                      {
                        OFFSET 4.350578 0.0 3e-06
                        CHANNELS 3 Zrotation Yrotation Xrotation
                        JOINT LeftHandRing4
                        {
                          OFFSET 2.651321 7e-06 2e-06
                          CHANNELS 3 Zrotation Yrotation Xrotation
                          JOINT LeftHandRingEnd
                          {
                            OFFSET 1.936105 0.077687 -7.1e-05
                            CHANNELS 3 Zrotation Yrotation Xrotation
                          }
                        }
                      }
                    }
                  }
                  JOINT LeftHandPinky1
                  {
                    OFFSET 2.8655 -0.310005 -1.600378
                    CHANNELS 3 Zrotation Yrotation Xrotation
                    JOINT LeftHandPinky2
                    {
                      OFFSET 5.087849 -1.331141 -1.77123
                      CHANNELS 3 Zrotation Yrotation Xrotation
                      JOINT LeftHandPinky3
                      {
                        OFFSET 3.070974 4e-06 0.0
                        CHANNELS 3 Zrotation Yrotation Xrotation
                        JOINT LeftHandPinky4
                        {
                          OFFSET 1.549672 0.0 1e-06
                          CHANNELS 3 Zrotation Yrotation Xrotation
                          JOINT LeftHandPinkyEnd
                          {
                            OFFSET 1.944893 -0.157802 0.057219
                            CHANNELS 3 Zrotation Yrotation Xrotation
                          }
                        }
                      }
                    }
                  }
                }
              }
            }
          }
          JOINT RightShoulder
          {
            OFFSET -1.380118 23.180309 5.214158
            CHANNELS 3 Zrotation Yrotation Xrotation
            JOINT RightArm
            {
              OFFSET -15.037196 1.2e-05 -5.545604
              CHANNELS 3 Zrotation Yrotation Xrotation
              JOINT RightForeArm
              {
                OFFSET -28.736639 2e-06 -0.002597
                CHANNELS 3 Zrotation Yrotation Xrotation
                JOINT RightHand
                {
                  OFFSET -27.133619 -0.0 0.002613
                  CHANNELS 3 Zrotation Yrotation Xrotation
                  JOINT RightHandThumb1
                  {
                    OFFSET -2.274032 -1.383988 3.163127
                    CHANNELS 3 Zrotation Yrotation Xrotation
                    JOINT RightHandThumb2
                    {
                      OFFSET -4.011429 -1.827466 1.640914
                      CHANNELS 3 Zrotation Yrotation Xrotation
                      JOINT RightHandThumb3
                      {
                        OFFSET -2.794935 -4e-06 -3e-06
                        CHANNELS 3 Zrotation Yrotation Xrotation
                        JOINT RightHandThumbEnd
                        {
                          OFFSET -3.183852 4e-06 1e-06
                          CHANNELS 3 Zrotation Yrotation Xrotation
                        }
                      }
                    }
                  }
                  JOINT RightHandIndex1
                  {
                    OFFSET -3.253266 -0.520057 2.282866
                    CHANNELS 3 Zrotation Yrotation Xrotation
                    JOINT RightHandIndex2
                    {
                      OFFSET -6.341917 0.012471 0.178266
                      CHANNELS 3 Zrotation Yrotation Xrotation
                      JOINT RightHandIndex3
                      {
                        OFFSET -3.654871 -8e-06 -0.0
                        CHANNELS 3 Zrotation Yrotation Xrotation
                        JOINT RightHandIndex4
                        {
                          OFFSET -2.327586 0.0 1e-06
                          CHANNELS 3 Zrotation Yrotation Xrotation
                          JOINT RightHandIndexEnd
                          {
                            OFFSET -2.76179 -0.180656 -0.113078
                            CHANNELS 3 Zrotation Yrotation Xrotation
                          }
                        }
                      }
                    }
                  }
                  JOINT RightHandMiddle1
                  {
                    OFFSET -3.168106 0.246593 1.00103
                    CHANNELS 3 Zrotation Yrotation Xrotation
                    JOINT RightHandMiddle2
                    {
                      OFFSET -6.180828 -0.258836 -1.000895
                      CHANNELS 3 Zrotation Yrotation Xrotation
                      JOINT RightHandMiddle3
                      {
                        OFFSET -4.348901 0.0 -0.0
                        CHANNELS 3 Zrotation Yrotation Xrotation
                        JOINT RightHandMiddle4
                        {
                          OFFSET -3.00024 -4e-06 -2e-06
                          CHANNELS 3 Zrotation Yrotation Xrotation
                          JOINT RightHandMiddleEnd
                          {
                            OFFSET -2.30252 -0.29437 -0.031706
                            CHANNELS 3 Zrotation Yrotation Xrotation
                          }
                        }
                      }
                    }
                  }
                  JOINT RightHandRing1
                  {
                    OFFSET -2.88569 -0.067952 -0.308858
                    CHANNELS 3 Zrotation Yrotation Xrotation
                    JOINT RightHandRing2
                    {
                      OFFSET -5.854198 -0.48613 -1.373731
                      CHANNELS 3 Zrotation Yrotation Xrotation
                      JOINT RightHandRing3
                      {
                        OFFSET -4.33881 -4e-06 -0.0
                        CHANNELS 3 Zrotation Yrotation Xrotation
                        JOINT RightHandRing4
                        {
                          OFFSET -2.654903 -4e-06 4e-06
                          CHANNELS 3 Zrotation Yrotation Xrotation
                          JOINT RightHandRingEnd
                          {
                            OFFSET -1.933568 0.077527 -5.2e-05
                            CHANNELS 3 Zrotation Yrotation Xrotation
                          }
                        }
                      }
                    }
                  }
                  JOINT RightHandPinky1
                  {
                    OFFSET -2.866425 -0.342796 -1.584145
                    CHANNELS 3 Zrotation Yrotation Xrotation
                    JOINT RightHandPinky2
                    {
                      OFFSET -5.091371 -1.332055 -1.772385
                      CHANNELS 3 Zrotation Yrotation Xrotation
                      JOINT RightHandPinky3
                      {
                        OFFSET -3.062664 -4e-06 1e-06
                        CHANNELS 3 Zrotation Yrotation Xrotation
                        JOINT RightHandPinky4
                        {
                          OFFSET -1.546529 4e-06 -2e-06
                          CHANNELS 3 Zrotation Yrotation Xrotation
                          JOINT RightHandPinkyEnd
                          {
                            OFFSET -1.945119 -0.157718 0.057211
                            CHANNELS 3 Zrotation Yrotation Xrotation
                          }
                        }
                      }
                    }
                  }
                }
              }
            }
          }
        }
      }
    }
    JOINT LeftLeg
    {
      OFFSET 10.043214 -8.434526 2.595655
      CHANNELS 3 Zrotation Yrotation Xrotation
      JOINT LeftShin
      {
        OFFSET -1e-06 -43.221752 -0.802913
        CHANNELS 3 Zrotation Yrotation Xrotation
        JOINT LeftFoot
        {
          OFFSET 1e-06 -42.155094 -3.481523
          CHANNELS 3 Zrotation Yrotation Xrotation
          JOINT LeftToeBase
          {
            OFFSET 0.0 -5.059472 13.231529
            CHANNELS 3 Zrotation Yrotation Xrotation
            JOINT LeftToeEnd
            {
              OFFSET -0.009607 -1.647619 6.513017
              CHANNELS 3 Zrotation Yrotation Xrotation
            }
          }
        }
      }
    }
    JOINT RightLeg
    {
      OFFSET -10.047278 -8.29526 2.620317
      CHANNELS 3 Zrotation Yrotation Xrotation
      JOINT RightShin
      {
        OFFSET 1e-06 -43.362206 -0.805556
        CHANNELS 3 Zrotation Yrotation Xrotation
        JOINT RightFoot
        {
          OFFSET 2e-06 -42.117393 -3.478398
          CHANNELS 3 Zrotation Yrotation Xrotation
          JOINT RightToeBase
          {
            OFFSET -0.0 -5.079609 13.284196
            CHANNELS 3 Zrotation Yrotation Xrotation
            JOINT RightToeEnd
            {
              OFFSET 0.009532 -1.634378 6.460591
              CHANNELS 3 Zrotation Yrotation Xrotation
            }
          }
        }
      }
    }
  }
}
MOTION
Frames: 4
Frame Time: 0.03333333333333333
0.0 0.0 0.0 0.0 -0.0 0.0 -0.47074 29.091543 3.222042 -2.851297 -2.35663 -18.057371 4.424351 -0.809039 12.553168 0.902048 -0.068291 1.823459 0.370178 -0.411908 34.454014 -6.771238 6.954745 25.060312 0.262604 0.128847 -3.533631 -1.604027 0.972787 -10.757923 7.7e-05 -2.2e-05 6e-06 -0.018876 0.040511 0.077876 0.628219 -3.541461 -10.085325 -0.687173 3.633355 -10.039116 -14.769356 -5.026566 17.769081 -25.868763 -29.616991 44.76123 0.260941 -66.610405 0.901346 59.470432 -32.724579 2.555962 -5.882108 9.861286 0.70259 -10.936873 -0.360574 7.156206 -1e-06 8.774826 -1e-06 -14.657769 17.754459 7.083461 -1.844035 2.498504 -2.507279 -10.163603 4.678946 4.621109 -20.976027 -1e-06 -1e-06 -21.226294 2.451698 -3.594004 -0.0 -5e-06 -0.0 -1.362682 2.240798 -0.746325 -21.334917 0.584913 3.008322 -13.821217 1e-06 1e-06 -23.887175 -0.249075 -0.839487 -60.95013 2.677728 -0.987793 -0.294024 1.679688 0.833255 -14.218212 0.093216 1.30058 -34.212048 -0.28756 0.967164 -20.033215 0.964536 1.212838 -1e-06 1e-06 -0.0 -3.440391 0.788234 0.501657 -15.928191 -3.167307 2.999707 -6.338829 -1e-06 -0.0 -18.123453 3.648185 -4.905674 -5e-06 1e-06 -2e-06 14.639705 19.149515 22.101984 29.640686 19.13611 37.129063 -2.593953 66.337051 -1.959613 -62.894112 38.226639 -4.431941 2.243543 -5.255043 -3.18016 14.2829 -0.826593 6.952505 -2e-06 -12.690612 -2e-06 14.13238 -17.632025 3.284459 1.665669 -1.955922 -2.878301 4.7278 -4.17059 4.993927 11.020535 4e-06 -4e-06 12.10906 -3.735718 -2.866789 0.0 1e-06 0.0 1.291985 -1.928552 -1.49809 14.800138 0.567468 3.865608 14.24258 -1.341738 -6.660666 19.631977 0.143927 -0.64825 49.440823 -1.365186 -6.0176 0.35303 -1.511152 -0.031941 20.222803 3.684312 2.316631 18.787287 5e-06 -4e-06 10.751634 -0.479869 1.397906 -0.0 -1e-06 -1e-06 3.273808 0.305946 -0.580112 21.486826 11.830382 2.266136 8.162931 2e-06 -1e-06 18.399096 -3.798986 -4.940581 3e-06 -1e-06 -1e-06 24.239065 -0.762766 -40.484009 -0.2009 -0.873811 166.694794 0.308566 -37.075146 4.326518 1.791517 -0.960193 -41.53577 -0.0 0.0 3e-06 -4.452397 -5.139379 -22.37899 0.009905 0.706527 166.448395 -15.248889 7.909132 -18.226339 -1.428505 0.462483 -31.865685 0.0 -0.0 -1e-06 
0.0 0.0 0.0 0.0 -0.0 0.0 -0.536966 29.08436 3.252166 -2.829955 -2.391817 -18.107737 4.468671 -0.842465 12.483947 0.914763 -0.073478 1.809297 0.413607 -0.492022 34.333942 -6.732139 6.923848 24.810856 0.276933 0.202129 -3.523206 -1.636981 1.005672 -10.810054 7.7e-05 -2.3e-05 7e-06 -0.008835 0.02925 0.083979 0.638778 -3.5595 -10.09215 -0.677806 3.629323 -10.048611 -14.754577 -5.01477 17.767883 -26.197182 -29.516529 44.864841 0.113731 -66.403801 1.031705 59.406754 -32.728622 2.25106 -5.882113 9.86129 0.702591 -10.936879 -0.360573 7.156212 1e-06 8.77483 -1e-06 -14.732742 17.735374 7.035995 -1.844034 2.498505 -2.507281 -10.16361 4.678949 4.621113 -20.97604 -2e-06 2e-06 -21.226307 2.451698 -3.594005 0.0 -5e-06 1e-06 -1.362682 2.240801 -0.746322 -21.33493 0.584912 3.008324 -13.821225 0.0 2e-06 -23.887192 -0.249078 -0.839485 -61.0187 2.678889 -0.975192 -0.294027 1.679687 0.833256 -14.218219 0.093217 1.300581 -34.212074 -0.287561 0.96717 -20.03323 0.964538 1.212842 0.0 0.0 -0.0 -3.440392 0.788232 0.501656 -15.9282 -3.167309 2.999709 -6.338832 -2e-06 0.0 -18.123459 3.648184 -4.905674 -5e-06 1e-06 -2e-06 14.670179 19.112085 22.108589 29.745253 19.117615 37.139881 -2.518091 66.295258 -1.883715 -62.55051 38.326294 -4.433095 2.243543 -5.255037 -3.18016 14.282893 -0.826597 6.952505 -0.0 -12.690605 2e-06 14.134431 -17.60918 3.295898 1.665666 -1.955922 -2.878299 4.7278 -4.170589 4.993924 11.020527 2e-06 -3e-06 12.109053 -3.735717 -2.866785 1e-06 0.0 0.0 1.291986 -1.92855 -1.49809 14.800129 0.567466 3.865609 14.242576 -1.341738 -6.660662 19.631969 0.143924 -0.648248 49.456711 -1.33825 -6.00239 0.353031 -1.511151 -0.031939 20.222795 3.684308 2.316629 18.787273 1e-06 -3e-06 10.751629 -0.479869 1.397905 -1e-06 -1e-06 -0.0 3.273805 0.305946 -0.58011 21.486814 11.830373 2.266132 8.162928 -0.0 -2e-06 18.399088 -3.798987 -4.940579 3e-06 -1e-06 -2e-06 24.5128 -1.014725 -40.230137 -0.221023 -0.878831 166.643219 0.453519 -37.358067 4.035285 1.803656 -0.961811 -41.433941 -0.0 -0.0 3e-06 -4.231789 -5.47991 -22.059744 0.008303 0.698645 166.430237 -15.274177 7.351345 -18.208729 -1.41875 0.463798 -31.974321 0.0 -0.0 -1e-06 
0.0 0.0 0.0 0.0 -0.0 0.0 -0.593172 29.094791 3.270416 -2.789887 -2.428483 -18.146194 4.510221 -0.872683 12.414166 0.927918 -0.065538 1.798995 0.452386 -0.568732 34.256973 -6.720404 6.908941 24.615551 0.270408 0.254082 -3.520187 -1.630925 1.018925 -10.840785 7.7e-05 -2.3e-05 6e-06 -0.005602 0.025326 0.088143 0.644256 -3.567563 -10.097013 -0.677069 3.630208 -10.054306 -14.791859 -4.994373 17.727289 -26.448938 -29.384512 44.939289 -0.042229 -66.267975 1.171233 59.406212 -32.744835 2.018283 -5.882108 9.861292 0.702587 -10.936878 -0.360579 7.156209 2e-06 8.77483 -2e-06 -14.777898 17.681095 6.992725 -1.844033 2.498507 -2.507279 -10.163609 4.678946 4.621109 -20.976034 -6e-06 0.0 -21.226301 2.451694 -3.594005 0.0 -5e-06 1e-06 -1.362682 2.240798 -0.746326 -21.334929 0.584906 3.008324 -13.821221 -2e-06 2e-06 -23.887182 -0.249083 -0.839485 -61.064507 2.675572 -0.966727 -0.294024 1.679689 0.833258 -14.218217 0.093215 1.30058 -34.212067 -0.287568 0.967169 -20.033226 0.964535 1.212845 -0.0 -0.0 -1e-06 -3.44039 0.788234 0.501655 -15.928198 -3.167313 2.999709 -6.33883 -2e-06 -1e-06 -18.123457 3.648183 -4.905675 -5e-06 2e-06 -2e-06 14.688228 19.06159 22.095366 29.815033 19.091442 37.133514 -2.493997 66.295395 -1.903336 -62.232117 38.455666 -4.345989 2.243542 -5.255037 -3.180157 14.282888 -0.826596 6.952502 -2e-06 -12.690605 -1e-06 14.106083 -17.578651 3.304645 1.665668 -1.955922 -2.878299 4.7278 -4.170586 4.993925 11.020528 2e-06 -2e-06 12.109052 -3.735717 -2.866786 0.0 0.0 0.0 1.291985 -1.928549 -1.498091 14.800129 0.567469 3.865605 14.242571 -1.341736 -6.660659 19.631968 0.143926 -0.648246 49.45647 -1.30614 -5.985806 0.353029 -1.511152 -0.031941 20.222794 3.68431 2.316628 18.78727 5e-06 -3e-06 10.751626 -0.479868 1.397905 -0.0 -1e-06 -0.0 3.273808 0.305947 -0.580111 21.486816 11.830374 2.266131 8.162928 1e-06 -1e-06 18.399084 -3.798984 -4.940578 3e-06 0.0 -2e-06 24.713203 -1.198085 -40.114902 -0.228061 -0.879434 166.579498 0.488877 -37.586929 3.88045 1.820322 -0.962761 -41.368507 -0.0 -0.0 3e-06 -4.033702 -5.715755 -21.913572 0.004065 0.687367 166.408524 -15.194737 6.859425 -18.012842 -1.407801 0.464894 -32.029671 0.0 -0.0 -1e-06 
0.0 0.0 0.0 0.0 -0.0 0.0 -0.633892 29.120642 3.264384 -2.738062 -2.454492 -18.185461 4.547212 -0.90453 12.354205 0.944737 -0.062622 1.785851 0.48241 -0.638226 34.237965 -6.738822 6.899114 24.480061 0.253822 0.292987 -3.521178 -1.613303 1.025045 -10.844021 7.7e-05 -2.3e-05 7e-06 -0.005428 0.024261 0.087042 0.64631 -3.568939 -10.100536 -0.679019 3.630306 -10.055468 -14.853631 -4.950857 17.681747 -26.61165 -29.273201 44.924435 -0.272526 -66.211647 1.35133 59.450218 -32.778912 1.934497 -5.882112 9.861289 0.702589 -10.93688 -0.360576 7.156209 0.0 8.774829 -1e-06 -14.821136 17.630083 6.95532 -1.844034 2.498506 -2.507281 -10.163607 4.678948 4.621111 -20.97604 -5e-06 -0.0 -21.226307 2.451696 -3.594005 -0.0 -6e-06 -0.0 -1.362683 2.240801 -0.746324 -21.334929 0.584909 3.008324 -13.821221 -1e-06 0.0 -23.887184 -0.249081 -0.839484 -61.108932 2.678531 -0.970237 -0.294025 1.679688 0.833256 -14.218221 0.093214 1.30058 -34.212078 -0.287566 0.967164 -20.03323 0.964535 1.21284 0.0 0.0 -0.0 -3.440391 0.788233 0.501655 -15.928194 -3.167309 2.999708 -6.338831 -1e-06 -1e-06 -18.123459 3.648183 -4.905676 -5e-06 1e-06 -1e-06 14.698643 19.026897 22.064064 29.823877 19.054283 37.106869 -2.461302 66.345879 -1.927481 -61.955383 38.567699 -4.267216 2.243545 -5.25504 -3.180159 14.282896 -0.826594 6.952507 -1e-06 -12.69061 -1e-06 14.06126 -17.548943 3.310256 1.665668 -1.955924 -2.878302 4.727801 -4.170591 4.993927 11.020535 3e-06 -4e-06 12.109058 -3.735719 -2.866788 1e-06 1e-06 -1e-06 1.291986 -1.928552 -1.49809 14.800139 0.567468 3.865608 14.242582 -1.341736 -6.660665 19.631979 0.143927 -0.648247 49.462875 -1.275971 -5.970142 0.353029 -1.511152 -0.031939 20.222803 3.684311 2.316631 18.787287 5e-06 -4e-06 10.751634 -0.479869 1.397907 -0.0 -1e-06 -0.0 3.273808 0.305946 -0.580113 21.486826 11.83038 2.266133 8.16293 1e-06 -1e-06 18.399094 -3.798988 -4.940581 3e-06 0.0 -1e-06 24.797258 -1.296985 -40.204353 -0.224861 -0.876329 166.516159 0.37184 -37.673679 3.957001 1.843885 -0.962165 -41.274426 1e-06 0.0 3e-06 -3.879755 -5.837057 -21.980528 -0.002242 0.669304 166.390701 -15.048591 6.478321 -17.688145 -1.399679 0.466382 -32.060078 0.0 -0.0 -1e-06 
